<?xml version="1.0" encoding="UTF-8"?>
<svg version="1.1" xmlns="http://www.w3.org/2000/svg" width="500" height="379">
<path d="M0 0 C165 0 330 0 500 0 C500 125.07 500 250.14 500 379 C335 379 170 379 0 379 C0 253.93 0 128.86 0 0 Z " fill="#FDFDFD" transform="translate(0,0)"/>
<path d="M0 0 C3.74127363 1.95559453 3.74127363 1.95559453 7.69140625 3.40234375 C9.34473317 2.4103476 10.99573842 1.41385709 12.625 0.3828125 C17.80217122 -2.07365248 23.43688304 -1.24099242 28.78515625 0.28515625 C38.27403764 3.90339132 45.46875556 8.99108907 49.796875 18.37109375 C51.30764345 23.49055366 51.42593511 28.65077202 51.55078125 33.9609375 C51.5313954 37.38436236 51.5313954 37.38436236 52.69140625 40.40234375 C57.68885495 39.51553135 62.48931444 38.55354317 67.25390625 36.77734375 C74.66618187 34.24156525 81.09553713 34.79364423 88.26171875 37.94140625 C94.80793013 41.87755265 99.44521744 48.13281264 101.69140625 55.40234375 C102.51007635 59.76281588 102.95096674 64.16673464 103.41992188 68.57617188 C104.06955103 73.88467993 105.13590445 78.05602312 107.77368164 82.73071289 C108.69140625 84.40234375 108.69140625 84.40234375 109.69140625 87.40234375 C111.01608371 88.08604825 112.35004258 88.75198561 113.69140625 89.40234375 C116.54413066 93.68143037 116.29608532 97.38121123 115.69140625 102.40234375 C113.55764112 108.94418654 108.28270218 113.39196492 102.4375 116.6640625 C95.35028216 119.9062087 87.72186863 121.12141515 80.2109375 118.5546875 C72.53499095 114.65726197 67.09831941 108.27323865 61.87890625 101.58984375 C47.15530344 82.91321139 28.93743867 71.52671963 5.69140625 66.40234375 C4.94383057 66.22501709 4.19625488 66.04769043 3.42602539 65.86499023 C-4.74439048 64.12049815 -12.85793594 63.99600497 -21.17749023 63.97680664 C-23.60698459 63.96491282 -26.03392921 63.915587 -28.46289062 63.86523438 C-41.46603783 63.73027966 -53.17543285 65.73060521 -63.41015625 74.51953125 C-70.98466919 82.03170252 -74.67382119 89.72946757 -74.71875 100.4375 C-74.70714844 101.37464844 -74.69554687 102.31179688 -74.68359375 103.27734375 C-74.69519531 104.20675781 -74.70679688 105.13617188 -74.71875 106.09375 C-74.68697624 116.44178777 -74.68697624 116.44178777 -70.30859375 125.40234375 C-63.90312199 125.91071452 -59.72608604 124.99804822 -53.8671875 122.4921875 C-34.63987986 114.30223509 -12.03175979 118.32586787 7.69140625 122.83984375 C24.73381246 127.05557457 24.73381246 127.05557457 42.12890625 128.65234375 C43.85947266 128.66007812 43.85947266 128.66007812 45.625 128.66796875 C48.58761205 128.41133484 50.22915432 128.01162157 52.69140625 126.40234375 C56.49171354 121.87120813 56.8478859 116.06881574 57.69140625 110.40234375 C58.68140625 110.40234375 59.67140625 110.40234375 60.69140625 110.40234375 C61.06016029 116.17949042 60.39635733 121.20921468 57.69140625 126.40234375 C54.14609415 130.41701159 50.67746716 133.12070091 45.21166992 133.63623047 C35.07717965 133.87227594 25.80677106 131.7974397 16.00390625 129.52734375 C14.365526 129.15755972 12.72685465 128.789063 11.08789062 128.421875 C-1.64640767 125.56218177 -1.64640767 125.56218177 -5.16186523 124.71362305 C-12.39201705 123.06320572 -19.60154083 122.97872937 -26.99609375 122.96484375 C-27.65923584 122.9624469 -28.32237793 122.96005005 -29.00561523 122.95758057 C-39.49131342 122.9572637 -47.79504979 124.04196943 -57.30859375 128.40234375 C-62.41810116 130.25685833 -65.91110745 131.08773884 -71.30859375 130.40234375 C-76.70632525 125.96420896 -78.31407623 120.17271305 -79.30859375 113.40234375 C-80.56028972 98.60385356 -78.9516186 86.24820412 -69.30859375 74.40234375 C-61.22305253 65.3916834 -49.28294894 60.26161461 -37.30859375 59.40234375 C-3.08674475 57.90622726 27.75944328 63.23796575 53.87890625 86.71484375 C60.90649815 93.2127353 66.95212877 100.60154977 72.82421875 108.140625 C76.36050931 112.42412339 79.49275876 114.11382136 84.90625 114.82421875 C93.84755375 115.17371597 100.36350164 113.66960069 107.37890625 108.05078125 C110.53563248 104.84024718 111.86031086 101.22922337 112.1640625 96.8359375 C111.34682932 92.62819974 108.61306472 89.94327911 105.76953125 86.859375 C100.84330266 81.03494308 100.11113608 75.47382469 99.31640625 68.15234375 C97.95965487 57.50952514 96.03270094 49.40342299 87.33984375 42.4609375 C82.20528078 39.16362336 75.5334938 39.975914 69.69140625 40.40234375 C67.3457054 41.37297858 65.01120006 42.37132428 62.69140625 43.40234375 C53.09294144 44.46279737 53.09294144 44.46279737 49.92578125 42.06640625 C47.32104945 38.55496401 47.57075991 35.04845734 47.44140625 30.83984375 C46.86570678 22.38752884 44.65476283 15.83858595 38.37890625 9.96484375 C31.13693153 4.4789702 23.6733911 3.41432542 14.69140625 4.40234375 C12.40733017 5.32848066 12.40733017 5.32848066 10.69140625 6.40234375 C11.30520928 9.51273888 12.34149743 11.61063683 14.12890625 14.21484375 C19.38952549 22.51628335 19.93015388 31.72034009 18.15625 41.2890625 C16.88415923 45.93949267 15.54666774 50.29671644 11.69140625 53.40234375 C8.19140625 53.58984375 8.19140625 53.58984375 4.69140625 52.40234375 C-0.78972457 46.32865825 -1.71628852 38.25219999 -1.74609375 30.33984375 C-1.74996094 29.61611572 -1.75382812 28.8923877 -1.7578125 28.14672852 C-1.5951184 20.35690097 0.77669314 13.55380056 3.69140625 6.40234375 C-10.8365256 -0.92950971 -23.49620808 -5.23713864 -39.96484375 -1.4140625 C-48.05585656 1.40430696 -53.87365813 7.2444532 -58.53125 14.23828125 C-59.98102726 18.27434458 -58.69390148 21.55983414 -56.96875 25.33203125 C-56.44152344 26.30398437 -55.91429687 27.2759375 -55.37109375 28.27734375 C-51.6056384 35.5915376 -49.50600683 42.10894554 -50.30859375 50.40234375 C-51.80608082 53.05917564 -53.15512126 55.24887126 -55.30859375 57.40234375 C-58.12109375 57.77734375 -58.12109375 57.77734375 -61.30859375 57.40234375 C-65.13825286 53.78544348 -67.04666499 49.56383127 -67.48291016 44.29833984 C-67.54148343 41.9131344 -67.53188278 39.53796491 -67.49609375 37.15234375 C-67.49544922 36.30768555 -67.49480469 35.46302734 -67.49414062 34.59277344 C-67.46333734 30.15196675 -67.15190853 26.02408756 -66.30859375 21.65234375 C-65.92011146 18.64948063 -66.01862624 17.79387348 -67.84765625 15.32421875 C-73.87594859 9.77006176 -79.44644779 7.84501672 -87.5859375 8.03125 C-91.84973642 8.61239906 -94.48449469 10.18579496 -97.30859375 13.40234375 C-100.50397819 18.42505814 -102.44252877 23.30306587 -102.40625 29.2890625 C-102.40302734 30.22685547 -102.39980469 31.16464844 -102.39648438 32.13085938 C-102.38810547 33.10732422 -102.37972656 34.08378906 -102.37109375 35.08984375 C-102.36658203 36.07791016 -102.36207031 37.06597656 -102.35742188 38.08398438 C-102.34563678 40.52349849 -102.32918386 42.96289064 -102.30859375 45.40234375 C-101.55650635 45.36109375 -100.80441895 45.31984375 -100.02954102 45.27734375 C-91.62431838 44.88213078 -86.25236216 46.90730659 -79.24609375 51.33984375 C-77.30859375 53.40234375 -77.30859375 53.40234375 -76.87109375 56.02734375 C-77.30859375 58.40234375 -77.30859375 58.40234375 -79.30859375 60.40234375 C-85.57905656 61.41970433 -90.98121915 61.16285418 -96.37109375 57.65234375 C-99.23966864 55.53697009 -101.27058973 53.32284795 -103.30859375 50.40234375 C-106.69848974 50.69290626 -108.24866131 51.35466416 -110.9453125 53.5 C-114.56696985 57.94775439 -114.06215742 62.18814204 -113.7890625 67.6640625 C-112.77130092 75.58274407 -108.9780848 80.4244795 -102.859375 85.30859375 C-99.95265523 87.35867319 -97.6922126 87.6499677 -94.18359375 87.96484375 C-92.81847656 88.09052734 -92.81847656 88.09052734 -91.42578125 88.21875 C-90.72710937 88.27933594 -90.0284375 88.33992188 -89.30859375 88.40234375 C-89.63859375 89.39234375 -89.96859375 90.38234375 -90.30859375 91.40234375 C-96.67312425 91.98923693 -101.22778081 91.75065392 -106.49609375 87.9375 C-113.66823997 81.86281581 -117.36221901 74.9031422 -118.7265625 65.53125 C-119.06421431 58.95160266 -117.74790459 54.3375994 -113.30859375 49.40234375 C-110.28947711 47.10206441 -109.10057521 46.40234375 -105.30859375 46.40234375 C-105.63859375 45.51546875 -105.96859375 44.62859375 -106.30859375 43.71484375 C-109.06039106 33.9350749 -107.96866257 23.06554597 -103.08984375 14.18359375 C-99.19062018 8.3780831 -94.03868103 4.34006281 -87.08203125 2.9609375 C-78.86150037 2.51069641 -71.78099591 5.85072247 -65.68359375 11.15234375 C-64.5460231 12.2224695 -63.41604605 13.30107833 -62.30859375 14.40234375 C-62.03015625 13.41234375 -62.03015625 13.41234375 -61.74609375 12.40234375 C-57.44875422 3.433983 -49.82846329 -1.83323157 -40.8671875 -5.6328125 C-26.65468682 -10.53760808 -12.83195763 -6.86116918 0 0 Z " fill="#1A1916" transform="translate(250.30859375,187.59765625)"/>
<path d="M0 0 C2.58941855 0.38112654 3.77857706 0.77327986 5.6328125 2.671875 C6.12523437 3.35765625 6.61765625 4.0434375 7.125 4.75 C7.62257813 5.42546875 8.12015625 6.1009375 8.6328125 6.796875 C11.74193461 11.8070032 12.34520277 16.30567422 12.5625 22.125 C12.75677121 27.64062517 12.75677121 27.64062517 14 33 C18.9974487 32.1131876 23.79790819 31.15119942 28.5625 29.375 C35.97477562 26.8392215 42.40413088 27.39130048 49.5703125 30.5390625 C56.11652388 34.4752089 60.75381119 40.73046889 63 48 C63.8186701 52.36047213 64.25956049 56.76439089 64.72851562 61.17382812 C65.37814478 66.48233618 66.4444982 70.65367937 69.08227539 75.32836914 C70 77 70 77 71 80 C72.32467746 80.6837045 73.65863633 81.34964186 75 82 C77.85272441 86.27908662 77.60467907 89.97886748 77 95 C74.86623487 101.54184279 69.59129593 105.98962117 63.74609375 109.26171875 C56.65887591 112.50386495 49.03046238 113.7190714 41.51953125 111.15234375 C33.8435847 107.25491822 28.40691316 100.8708949 23.1875 94.1875 C8.46389719 75.51086764 -9.75396758 64.12437588 -33 59 C-33.74757568 58.82267334 -34.49515137 58.64534668 -35.26538086 58.46264648 C-43.43579673 56.7181544 -51.54934219 56.59366122 -59.86889648 56.57446289 C-62.29839084 56.56256907 -64.72533546 56.51324325 -67.15429688 56.46289062 C-80.15744408 56.32793591 -91.8668391 58.32826146 -102.1015625 67.1171875 C-109.67607544 74.62935877 -113.36522744 82.32712382 -113.41015625 93.03515625 C-113.39855469 93.97230469 -113.38695312 94.90945313 -113.375 95.875 C-113.38660156 96.80441406 -113.39820313 97.73382813 -113.41015625 98.69140625 C-113.37838249 109.03944402 -113.37838249 109.03944402 -109 118 C-102.59452824 118.50837077 -98.41749229 117.59570447 -92.55859375 115.08984375 C-73.33128611 106.89989134 -50.72316604 110.92352412 -31 115.4375 C-13.95759379 119.65323082 -13.95759379 119.65323082 3.4375 121.25 C5.16806641 121.25773437 5.16806641 121.25773437 6.93359375 121.265625 C9.8962058 121.00899109 11.53774807 120.60927782 14 119 C17.80030729 114.46886438 18.15647965 108.66647199 19 103 C19.99 103 20.98 103 22 103 C22.36875404 108.77714667 21.70495108 113.80687093 19 119 C15.4546879 123.01466784 11.98606091 125.71835716 6.52026367 126.23388672 C-3.6142266 126.46993219 -12.88463519 124.39509595 -22.6875 122.125 C-24.32588025 121.75521597 -25.9645516 121.38671925 -27.60351562 121.01953125 C-40.33781392 118.15983802 -40.33781392 118.15983802 -43.85327148 117.3112793 C-51.0834233 115.66086197 -58.29294708 115.57638562 -65.6875 115.5625 C-66.35064209 115.56010315 -67.01378418 115.5577063 -67.69702148 115.55523682 C-78.18271967 115.55491995 -86.48645604 116.63962568 -96 121 C-101.10950741 122.85451458 -104.6025137 123.68539509 -110 123 C-115.3977315 118.56186521 -117.00548248 112.7703693 -118 106 C-119.25169597 91.20150981 -117.64302485 78.84586037 -108 67 C-99.91445878 57.98933965 -87.97435519 52.85927086 -76 52 C-41.778151 50.50388351 -10.93196297 55.835622 15.1875 79.3125 C22.2150919 85.81039155 28.26072252 93.19920602 34.1328125 100.73828125 C37.66910306 105.02177964 40.80135251 106.71147761 46.21484375 107.421875 C55.1561475 107.77137222 61.67209539 106.26725694 68.6875 100.6484375 C71.84422623 97.43790343 73.16890461 93.82687962 73.47265625 89.43359375 C72.65542307 85.22585599 69.92165847 82.54093536 67.078125 79.45703125 C62.15189641 73.63259933 61.41972983 68.07148094 60.625 60.75 C59.26824862 50.10718139 57.34129469 42.00107924 48.6484375 35.05859375 C43.51387453 31.76127961 36.84208755 32.57357025 31 33 C28.65429915 33.97063483 26.31979381 34.96898053 24 36 C14.40153519 37.06045362 14.40153519 37.06045362 11.234375 34.6640625 C8.6296432 31.15262026 8.87935366 27.64611359 8.75 23.4375 C8.29142858 16.29266148 6.70061323 9.51818864 1.3359375 4.41796875 C0 3 0 3 0 0 Z " fill="#1B1B1B" transform="translate(289,195)"/>
<path d="M0 0 C2.82959359 0.99043005 5.45708924 2.26382104 8.125 3.625 C8.82753906 3.95628906 9.53007812 4.28757812 10.25390625 4.62890625 C14.90899133 6.96084868 17.79303235 9.09435689 20 14 C21.66467696 22.38600879 18.2868591 28.68108388 14.3125 35.875 C13.78205078 36.89335938 13.25160156 37.91171875 12.70507812 38.9609375 C7.44290694 48.77504818 7.44290694 48.77504818 3 51 C-2.37337676 51.01511498 -6.91193009 48.3282264 -11.5625 45.875 C-12.30435547 45.50890625 -13.04621094 45.1428125 -13.81054688 44.765625 C-18.71558766 42.19735788 -23.03670691 39.39803839 -25 34 C-25.20297143 26.77063528 -20.71424961 20.19619432 -17.1875 14.1875 C-16.66607422 13.26001953 -16.14464844 12.33253906 -15.60742188 11.37695312 C-8.3205109 -1.24095639 -8.3205109 -1.24095639 0 0 Z " fill="#473139" transform="translate(338,84)"/>
<path d="M0 0 C6.8731724 0.06561501 14.45582714 0.52484436 19.85546875 5.16796875 C23.38273592 9.31815286 23.83114889 13.79642496 23.5 19.0625 C22.88060786 24.30182882 21.88307615 29.46199306 20.8125 34.625 C20.65958496 35.3981958 20.50666992 36.1713916 20.34912109 36.96801758 C19.34009507 41.55254879 18.32716164 45.09467718 14.625 48.25 C9.19062987 48.95680151 3.88037365 47.75155539 -1.4375 46.625 C-2.21416016 46.48449219 -2.99082031 46.34398437 -3.79101562 46.19921875 C-9.40273136 45.01130263 -13.04220324 43.01613509 -16.375 38.25 C-18.62695096 31.58653484 -15.66396163 23.04796586 -14.1875 16.375 C-13.9918042 15.45904053 -13.7961084 14.54308105 -13.59448242 13.59936523 C-12.24847274 7.9952016 -10.88225647 4.8941648 -6.375 1.25 C-4.64080841 -0.48419159 -2.36202756 0.0364323 0 0 Z " fill="#473039" transform="translate(291.375,66.75)"/>
<path d="M0 0 C2.28319193 0.89611848 3.51074885 1.88491913 5.25471497 3.60102844 C6.16003716 4.48248283 6.16003716 4.48248283 7.08364868 5.38174438 C8.04170662 6.3395002 8.04170662 6.3395002 9.01911926 7.31660461 C10.01300911 8.29907417 10.01300911 8.29907417 11.02697754 9.3013916 C12.42348483 10.68710177 13.81604311 12.07680146 15.20491028 13.47016907 C17.33895924 15.60519259 19.49344321 17.71799786 21.64997864 19.83027649 C23.00349076 21.17858353 24.35574854 22.52815117 25.70661926 23.87910461 C26.35544571 24.5115358 27.00427216 25.14396698 27.67276001 25.79556274 C28.26054733 26.39265549 28.84833466 26.98974823 29.45393372 27.60493469 C29.97703629 28.12598282 30.50013885 28.64703094 31.03909302 29.18386841 C32.03083801 30.79707336 32.03083801 30.79707336 31.77392578 32.88330078 C30.87444921 35.19984221 30.06876156 36.36297901 28.03083801 37.79707336 C24.37182194 37.40229489 22.65656315 35.77664669 20.14021301 33.19941711 C19.43122864 32.48076477 18.72224426 31.76211243 17.99177551 31.02168274 C17.26216614 30.26693665 16.53255676 29.51219055 15.78083801 28.73457336 C15.03575989 27.97596008 14.29068176 27.2173468 13.52302551 26.43574524 C11.68537108 24.56275129 9.85508077 22.68311726 8.03083801 20.79707336 C7.98185364 21.64012024 7.93286926 22.48316711 7.88240051 23.35176086 C7.80763489 24.44746399 7.73286926 25.54316711 7.65583801 26.67207336 C7.58622864 27.76262024 7.51661926 28.85316711 7.44490051 29.97676086 C7.03083801 32.79707336 7.03083801 32.79707336 5.03083801 34.79707336 C2.89411926 35.06269836 2.89411926 35.06269836 0.34333801 35.04707336 C-0.89996277 35.05480774 -0.89996277 35.05480774 -2.16838074 35.06269836 C-5.59533268 34.73768758 -8.68861117 33.81643071 -11.96916199 32.79707336 C-11.59106384 33.3109259 -11.2129657 33.82477844 -10.82341003 34.35420227 C-9.09646084 36.70675026 -7.37652663 39.06434181 -5.65666199 41.42207336 C-5.06175964 42.23031555 -4.4668573 43.03855774 -3.85392761 43.87129211 C-0.81166731 48.05227554 1.91388374 52.07404904 4.03083801 56.79707336 C2.05083801 59.10707336 0.07083801 61.41707336 -1.96916199 63.79707336 C-6.5132616 59.56046921 -10.07607011 54.81590261 -13.71916199 49.79707336 C-14.33098328 48.95926331 -14.94280457 48.12145325 -15.57316589 47.258255 C-29.96916199 27.481268 -29.96916199 27.481268 -29.96916199 24.79707336 C-26.67860427 21.29099988 -24.53953194 19.49249305 -19.66447449 19.30879211 C-18.14026454 19.34164147 -16.61641811 19.40072027 -15.09416199 19.48457336 C-14.31041199 19.50713196 -13.52666199 19.52969055 -12.71916199 19.55293274 C-10.80165939 19.61139318 -8.88515139 19.70106053 -6.96916199 19.79707336 C-7.0271698 18.77226868 -7.08517761 17.74746399 -7.14494324 16.69160461 C-7.19186156 15.33097326 -7.23735951 13.9702924 -7.28166199 12.60957336 C-7.32355652 11.93603821 -7.36545105 11.26250305 -7.40861511 10.56855774 C-7.50448988 6.63769244 -7.06989713 4.93248498 -4.69963074 1.74629211 C-1.96916199 -0.20292664 -1.96916199 -0.20292664 0 0 Z " fill="#48323A" transform="translate(142.9691619873047,91.20292663574219)"/>
<path d="M0 0 C3.83169177 0.60570735 6.8348 1.74606351 10.28125 3.51171875 C11.28285156 4.01993164 12.28445312 4.52814453 13.31640625 5.05175781 C14.36699219 5.59155273 15.41757813 6.13134766 16.5 6.6875 C18.65548602 7.78145455 20.81173098 8.87391504 22.96875 9.96484375 C24.00515625 10.48933105 25.0415625 11.01381836 26.109375 11.55419922 C31.34420079 14.17249637 36.65315428 16.61898277 42 19 C41.31911019 21.91985181 40.41898766 24.35122304 39 27 C35.47944083 26.40915596 32.56638778 25.4844458 29.35546875 23.93359375 C28.51435547 23.53076172 27.67324219 23.12792969 26.80664062 22.71289062 C25.94232422 22.29201172 25.07800781 21.87113281 24.1875 21.4375 C23.30384766 21.01275391 22.42019531 20.58800781 21.50976562 20.15039062 C19.33735663 19.10528576 17.16760043 18.05503238 15 17 C15.21438721 17.61633301 15.42877441 18.23266602 15.6496582 18.86767578 C15.92640381 19.6770459 16.20314941 20.48641602 16.48828125 21.3203125 C16.90267456 22.52324951 16.90267456 22.52324951 17.32543945 23.75048828 C18 26 18 26 18.1875 28.875 C16.49683802 31.90039513 14.43433012 32.41154976 11.2109375 33.44140625 C8.14033472 34.21719458 5.15002442 34.67187246 2 35 C6.01282895 39.32942295 10.41780341 42.53624643 15.3125 45.8125 C16.05306641 46.31458984 16.79363281 46.81667969 17.55664062 47.33398438 C19.36784269 48.56092771 21.18227378 49.78275266 23 51 C22.33758211 54.55079859 21.42518229 57.67457466 20 61 C8.55122257 55.49829918 -1.70173323 47.35806622 -12 40 C-12.68384766 39.51176758 -13.36769531 39.02353516 -14.07226562 38.52050781 C-15.71512106 37.34739346 -17.35760245 36.17375532 -19 35 C-18.34938905 33.32700041 -17.67966676 31.66140763 -17 30 C-16.78085938 29.3296875 -16.56171875 28.659375 -16.3359375 27.96875 C-14.30982841 24.98290502 -11.9119033 24.70110579 -8.5 23.75 C-6.75203125 23.24726563 -6.75203125 23.24726563 -4.96875 22.734375 C-2 22 -2 22 0 22 C-0.30035156 21.11957031 -0.60070312 20.23914063 -0.91015625 19.33203125 C-1.29042969 18.17058594 -1.67070313 17.00914062 -2.0625 15.8125 C-2.44535156 14.66394531 -2.82820313 13.51539063 -3.22265625 12.33203125 C-4.00365857 8.9843178 -4.04633421 7.22998823 -3 4 C-1.4375 1.6875 -1.4375 1.6875 0 0 Z " fill="#473139" transform="translate(96,135)"/>
<path d="M0 0 C3.23849524 9.25467217 6.00581159 18.38574208 8 28 C4.7 28.33 1.4 28.66 -2 29 C-3.32 26.03 -4.64 23.06 -6 20 C-8.31 20.33 -10.62 20.66 -13 21 C-12.34 23.97 -11.68 26.94 -11 30 C-16.17578125 34.00390625 -16.17578125 34.00390625 -18 35 C-18.99 34.67 -19.98 34.34 -21 34 C-22.6875 30.4375 -22.6875 30.4375 -24 27 C-26.76276177 27.52268466 -29.3260876 28.10869587 -32 29 C-31.38011223 32.9672817 -30.10462437 36.3723151 -28.5234375 40.03515625 C-27.88504309 42.43151735 -28.09540335 43.70482658 -29 46 C-31.90696599 48.14197494 -33.35521088 49 -37 49 C-37.31751221 48.33468262 -37.63502441 47.66936523 -37.9621582 46.98388672 C-39.41170504 43.94732006 -40.86209496 40.91115683 -42.3125 37.875 C-42.81201172 36.82828125 -43.31152344 35.7815625 -43.82617188 34.703125 C-46.17797378 29.78147333 -48.53363716 24.86538471 -51 20 C-42.75529095 16.122183 -34.37178262 12.72055481 -25.875 9.4375 C-15.21166785 5.32699156 -15.21166785 5.32699156 -4.77392578 0.68383789 C-3 0 -3 0 0 0 Z " fill="#48313A" transform="translate(428,167)"/>
<path d="M0 0 C1.03165283 0.10473633 2.06330566 0.20947266 3.1262207 0.31738281 C4.80361328 0.47207031 4.80361328 0.47207031 6.51489258 0.62988281 C8.26576172 0.82324219 8.26576172 0.82324219 10.05200195 1.02050781 C11.23084961 1.13394531 12.40969727 1.24738281 13.62426758 1.36425781 C16.54008246 1.64757586 19.45253801 1.95036577 22.36450195 2.27050781 C23.00436266 4.02291571 23.6435565 5.77556711 24.2824707 7.52832031 C24.63849365 8.50430176 24.9945166 9.4802832 25.36132812 10.48583984 C28.88266487 20.26057018 28.88266487 20.26057018 27.36450195 25.27050781 C25.05450195 25.93050781 22.74450195 26.59050781 20.36450195 27.27050781 C19.19200842 25.81685512 18.0266638 24.35743362 16.86450195 22.89550781 C16.21481445 22.08339844 15.56512695 21.27128906 14.89575195 20.43457031 C13.36450195 18.27050781 13.36450195 18.27050781 13.36450195 16.27050781 C10.06450195 15.94050781 6.76450195 15.61050781 3.36450195 15.27050781 C2.04868133 17.53947413 0.7367496 19.81053968 -0.57299805 22.08300781 C-0.94618164 22.72560547 -1.31936523 23.36820313 -1.70385742 24.03027344 C-3.2701644 26.75367206 -4.63919179 29.28158904 -5.63549805 32.27050781 C-7.86492552 32.12871743 -10.09403432 31.98191084 -12.32299805 31.83300781 C-13.56436523 31.75179687 -14.80573242 31.67058594 -16.0847168 31.58691406 C-24.06543395 30.87576105 -24.06543395 30.87576105 -26.2175293 28.59082031 C-29.7286591 22.32651889 -30.27128232 17.36836179 -29.63549805 10.27050781 C-29.56717773 9.46484375 -29.49885742 8.65917969 -29.4284668 7.82910156 C-28.86612305 2.50113281 -28.86612305 2.50113281 -27.63549805 1.27050781 C-24.96490954 1.1293562 -22.31117567 1.22803674 -19.63549805 1.27050781 C-18.59959605 6.32053003 -18.53298132 11.1446717 -18.63549805 16.27050781 C-14.22580178 14.90304103 -12.2747668 13.04867868 -9.51049805 9.39550781 C-8.84791992 8.53183594 -8.1853418 7.66816406 -7.50268555 6.77832031 C-5.64886658 4.38688816 -5.64886658 4.38688816 -4.37890625 2.11083984 C-2.63549805 0.27050781 -2.63549805 0.27050781 0 0 Z " fill="#463039" transform="translate(420.635498046875,216.7294921875)"/>
<path d="M0 0 C3.36179774 1.44077046 5.59156268 3.24750021 8 6 C8 6.66 8 7.32 8 8 C6.6338512 8.92215044 5.26226833 9.83707758 3.8671875 10.71484375 C0.32107324 13.1555793 -2.81029981 16.11793587 -6 19 C-4.70964844 19.18175781 -3.41929687 19.36351562 -2.08984375 19.55078125 C-0.37232179 19.80418613 1.34512211 20.05812052 3.0625 20.3125 C3.91005859 20.43044922 4.75761719 20.54839844 5.63085938 20.66992188 C18.02952151 22.53690189 18.02952151 22.53690189 22 27.5 C23 30 23 30 22 33 C19.12396656 32.71661725 16.24946149 32.42358747 13.375 32.125 C12.56675781 32.04636719 11.75851562 31.96773437 10.92578125 31.88671875 C6.36500951 31.40468596 2.31454415 30.6615882 -2 29 C-2.0928125 30.7015625 -2.0928125 30.7015625 -2.1875 32.4375 C-2.74127531 37.43752923 -4.00529151 42.17348026 -5.375 47 C-5.58406982 47.76626709 -5.79313965 48.53253418 -6.00854492 49.32202148 C-6.57392408 51.24638144 -7.27747912 53.12896328 -8 55 C-11 56 -11 56 -13.69921875 54.78515625 C-14.68535156 54.21667969 -15.67148437 53.64820313 -16.6875 53.0625 C-17.68136719 52.49660156 -18.67523438 51.93070313 -19.69921875 51.34765625 C-20.83810547 50.68056641 -20.83810547 50.68056641 -22 50 C-21.47667273 44.84522636 -20.26935389 40.89781134 -18 36.25 C-15.79589598 31.70795617 -15.79589598 31.70795617 -14 27 C-15.22976563 27.99193359 -15.22976563 27.99193359 -16.484375 29.00390625 C-17.57239357 29.85743806 -18.66096435 30.71026629 -19.75 31.5625 C-20.55824219 32.21895508 -20.55824219 32.21895508 -21.3828125 32.88867188 C-25.42384106 36.01800497 -25.42384106 36.01800497 -28.25 35.9296875 C-30.92902783 34.50645396 -32.31109041 32.47304618 -34 30 C-34 29.34 -34 28.68 -34 28 C-31.99332604 26.29829168 -29.9750836 24.70447928 -27.875 23.125 C-20.89785595 17.76998805 -14.22275761 12.12361222 -7.58203125 6.36035156 C-5.08026533 4.20914173 -2.54095517 2.10470684 0 0 Z " fill="#473039" transform="translate(376,110)"/>
<path d="M0 0 C5.68287519 2.93636313 9.85363819 7.93682985 12.19140625 13.78125 C12.39765625 14.626875 12.60390625 15.4725 12.81640625 16.34375 C2.39092222 25.55696845 -9.29508032 25.67568191 -22.65136719 25.60449219 C-25.0738169 25.59368207 -27.49554028 25.60447904 -29.91796875 25.6171875 C-31.46224121 25.61586742 -33.00651323 25.61330818 -34.55078125 25.609375 C-35.27264618 25.61342346 -35.99451111 25.61747192 -36.73825073 25.62164307 C-40.43827013 25.58690318 -42.02130278 25.45194398 -45.18359375 23.34375 C-44.29662592 16.79383373 -40.1908499 12.76351511 -35.1640625 8.71875 C-33.53419919 7.55029402 -31.86267995 6.44029609 -30.18359375 5.34375 C-30.84359375 4.68375 -31.50359375 4.02375 -32.18359375 3.34375 C-31.54292969 3.30636719 -30.90226562 3.26898438 -30.2421875 3.23046875 C-26.01347353 2.90906128 -22.74600315 2.60903745 -18.87109375 0.78125 C-12.92498066 -1.53672629 -6.16976546 -1.85424078 0 0 Z " fill="#FCC830" transform="translate(335.18359375,227.65625)"/>
<path d="M0 0 C11.62631802 0.39211865 27.07205324 1.50924651 36 10 C39.72558235 14.9532342 39.19566638 18.75060899 38.58203125 24.69140625 C37.79689548 29.15456061 36.51884367 33.20436317 34 37 C27.07629429 41.6158038 14.79839439 39.18612711 6.94140625 37.7109375 C1.84630255 36.47945161 -3.079745 34.79711441 -8 33 C-7.29517987 28.51708998 -6.30120196 24.33733986 -5 20 C2.75038001 20.880725 10.78086185 22.36113745 17.875 25.6875 C21.21056857 27.0884388 23.4218466 27.33285148 27 27 C27.66 26.67 28.32 26.34 29 26 C29.46523063 24.10466658 29.46523063 24.10466658 29.625 21.9375 C29.810625 19.9884375 29.810625 19.9884375 30 18 C23.75672749 15.69331666 17.70895888 14.2888618 11.125 13.375 C9.46061446 13.13504258 7.7965355 12.89294631 6.1328125 12.6484375 C5.40980957 12.54708496 4.68680664 12.44573242 3.94189453 12.34130859 C2 12 2 12 -1 11 C-0.67 7.37 -0.34 3.74 0 0 Z " fill="#49333B" transform="translate(74,189)"/>
<path d="M0 0 C0.10454199 6.88815574 -0.05824496 13.53015909 -0.875 20.375 C-1.4668362 27.88197494 0.44035393 33.10471407 3.5546875 39.7578125 C4.81354717 42.58174096 5.55267123 44.96045836 6 48 C3.87717331 49.00460531 1.75166979 50.00355602 -0.375 51 C-1.55835938 51.556875 -2.74171875 52.11375 -3.9609375 52.6875 C-7 54 -7 54 -9 54 C-9.25579834 53.37544922 -9.51159668 52.75089844 -9.77514648 52.10742188 C-10.97135024 49.22736614 -12.20397402 46.36425826 -13.4375 43.5 C-13.83904297 42.51773438 -14.24058594 41.53546875 -14.65429688 40.5234375 C-17.84827924 33.20897406 -21.72136236 28.85113408 -28 24 C-29.09744601 23.08620073 -30.19283679 22.16992121 -31.28515625 21.25 C-32.20167969 20.5075 -33.11820313 19.765 -34.0625 19 C-35.00222656 18.236875 -35.94195312 17.47375 -36.91015625 16.6875 C-37.59980469 16.130625 -38.28945312 15.57375 -39 15 C-38 12 -38 12 -35.27734375 10.61328125 C-34.17519531 10.18402344 -33.07304687 9.75476563 -31.9375 9.3125 C-30.83277344 8.87550781 -29.72804687 8.43851563 -28.58984375 7.98828125 C-27.73519531 7.66214844 -26.88054687 7.33601563 -26 7 C-25.40832031 7.61488281 -24.81664062 8.22976562 -24.20703125 8.86328125 C-23.41683594 9.67152344 -22.62664062 10.47976562 -21.8125 11.3125 C-21.03519531 12.11300781 -20.25789063 12.91351563 -19.45703125 13.73828125 C-17.09694305 15.91076308 -14.80352112 17.46130013 -12 19 C-11.90912109 17.78763672 -11.90912109 17.78763672 -11.81640625 16.55078125 C-11.73261719 15.48214844 -11.64882812 14.41351563 -11.5625 13.3125 C-11.48128906 12.25675781 -11.40007812 11.20101562 -11.31640625 10.11328125 C-11.03548319 7.34913703 -10.59843148 4.71054259 -10 2 C-8.7090864 1.66376204 -7.41723903 1.33110751 -6.125 1 C-5.40570313 0.814375 -4.68640625 0.62875 -3.9453125 0.4375 C-2 0 -2 0 0 0 Z " fill="#48313A" transform="translate(197,67)"/>
<path d="M0 0 C3.94854225 0.4822647 6.78458618 1.93788785 10.21704102 3.8828125 C22.01552597 10.36652418 33.79713039 10.1694033 47 10 C47.495 17.92 47.495 17.92 48 26 C42.9496282 27.01007436 38.09064694 27.32157654 32.97070312 27.51757812 C24.28674307 27.95383394 18.15195347 31.42273823 10.75 35.625 C8.955282 36.64183739 7.15850623 37.65505418 5.359375 38.6640625 C4.57014648 39.11217285 3.78091797 39.5602832 2.96777344 40.02197266 C1 41 1 41 -1 41 C-1.95397287 36.23013567 -2.03998805 31.83855385 -2 27 C0.28874173 25.66141476 2.58069656 24.32898986 4.875 23 C5.52597656 22.6184375 6.17695312 22.236875 6.84765625 21.84375 C11.7734375 19 11.7734375 19 14 19 C14 18.34 14 17.68 14 17 C13.360625 16.773125 12.72125 16.54625 12.0625 16.3125 C7.855805 14.50963071 3.9810729 12.25792194 0 10 C0 6.7 0 3.4 0 0 Z " fill="#47313A" transform="translate(60,235)"/>
<path d="M0 0 C0 4.62 0 9.24 0 14 C-1.711875 14.391875 -3.42375 14.78375 -5.1875 15.1875 C-10.07387952 16.50644563 -12.78365936 17.95363596 -16 22 C-16.66 22.66 -17.32 23.32 -18 24 C-18.47213673 28.06095958 -18.47213673 28.06095958 -18 32 C-14.97802708 35.10872812 -11.94724391 35.59441119 -7.75 36.1875 C-5.8525 36.455625 -3.955 36.72375 -2 37 C-2 41.62 -2 46.24 -2 51 C-3.86386764 50.75838753 -5.72747601 50.51463289 -7.58984375 50.26171875 C-10.00059412 49.96317631 -10.00059412 49.96317631 -12.44140625 49.95703125 C-19.73813333 49.71723271 -23.88824067 47.12214909 -29 42 C-32.88139387 37.65653543 -33.2127839 34.93035365 -33.00146484 29.09350586 C-32.53617022 21.16104087 -31.86140099 13.86140099 -26 8 C-17.85926315 1.89065745 -10.06737064 0 0 0 Z " fill="#48313A" transform="translate(270,57)"/>
<path d="M0 0 C3.44516572 1.95925077 5.16497983 3.90450395 7.24609375 7.27734375 C6.91609375 8.26734375 6.58609375 9.25734375 6.24609375 10.27734375 C5.46685547 9.66246094 5.46685547 9.66246094 4.671875 9.03515625 C3.97449219 8.49632812 3.27710938 7.9575 2.55859375 7.40234375 C1.53185547 6.60183594 1.53185547 6.60183594 0.484375 5.78515625 C-5.28031121 1.90178997 -10.96000824 1.35134617 -17.75390625 2.27734375 C-23.16718762 4.41285842 -25.71544131 8.24355688 -28.02734375 13.41015625 C-29.36685874 16.85256573 -29.87382035 19.49151735 -29.8515625 23.1640625 C-29.84833984 24.10185547 -29.84511719 25.03964844 -29.84179688 26.00585938 C-29.82922852 27.47055664 -29.82922852 27.47055664 -29.81640625 28.96484375 C-29.81189453 29.95291016 -29.80738281 30.94097656 -29.80273438 31.95898438 C-29.79094928 34.39849849 -29.77449636 36.83789064 -29.75390625 39.27734375 C-29.00181885 39.23609375 -28.24973145 39.19484375 -27.47485352 39.15234375 C-19.06963088 38.75713078 -13.69767466 40.78230659 -6.69140625 45.21484375 C-4.75390625 47.27734375 -4.75390625 47.27734375 -4.31640625 49.90234375 C-4.75390625 52.27734375 -4.75390625 52.27734375 -6.75390625 54.27734375 C-13.02436906 55.29470433 -18.42653165 55.03785418 -23.81640625 51.52734375 C-26.68498114 49.41197009 -28.71590223 47.19784795 -30.75390625 44.27734375 C-34.14380224 44.56790626 -35.69397381 45.22966416 -38.390625 47.375 C-42.01228235 51.82275439 -41.50746992 56.06314204 -41.234375 61.5390625 C-40.21661342 69.45774407 -36.4233973 74.2994795 -30.3046875 79.18359375 C-27.39796773 81.23367319 -25.1375251 81.5249677 -21.62890625 81.83984375 C-20.26378906 81.96552734 -20.26378906 81.96552734 -18.87109375 82.09375 C-18.17242187 82.15433594 -17.47375 82.21492188 -16.75390625 82.27734375 C-17.08390625 83.26734375 -17.41390625 84.25734375 -17.75390625 85.27734375 C-24.11843675 85.86423693 -28.67309331 85.62565392 -33.94140625 81.8125 C-41.11355247 75.73781581 -44.80753151 68.7781422 -46.171875 59.40625 C-46.50952681 52.82660266 -45.19321709 48.2125994 -40.75390625 43.27734375 C-37.73478961 40.97706441 -36.54588771 40.27734375 -32.75390625 40.27734375 C-33.08390625 39.39046875 -33.41390625 38.50359375 -33.75390625 37.58984375 C-36.50570356 27.8100749 -35.41397507 16.94054597 -30.53515625 8.05859375 C-22.92126111 -3.27765012 -12.07312391 -5.2925863 0 0 Z " fill="#171615" transform="translate(177.75390625,193.72265625)"/>
<path d="M0 0 C-1.33333333 4 -2.66666667 8 -4 12 C-4.25736763 15.5161878 -4.23143719 19.03788727 -4.25 22.5625 C-4.270625 23.51447266 -4.29125 24.46644531 -4.3125 25.44726562 C-4.34849832 32.05745734 -3.44134239 37.83025103 -1 44 C0.23053455 45.44685009 0.23053455 45.44685009 3.9375 45.3125 C8.65775742 45.26775822 12.14594746 43.92701867 16.44140625 42.08984375 C35.66871389 33.89989134 58.27683396 37.92352412 78 42.4375 C95.04240621 46.65323082 95.04240621 46.65323082 112.4375 48.25 C114.16806641 48.25773437 114.16806641 48.25773437 115.93359375 48.265625 C118.8962058 48.00899109 120.53774807 47.60927782 123 46 C126.80030729 41.46886438 127.15647965 35.66647199 128 30 C128.99 30 129.98 30 131 30 C131.36875404 35.77714667 130.70495108 40.80687093 128 46 C124.4546879 50.01466784 120.98606091 52.71835716 115.52026367 53.23388672 C105.3857734 53.46993219 96.11536481 51.39509595 86.3125 49.125 C84.67411975 48.75521597 83.0354484 48.38671925 81.39648438 48.01953125 C68.66218608 45.15983802 68.66218608 45.15983802 65.14672852 44.3112793 C57.9165767 42.66086197 50.70705292 42.57638562 43.3125 42.5625 C42.64935791 42.56010315 41.98621582 42.5577063 41.30297852 42.55523682 C30.81728033 42.55491995 22.51354396 43.63962568 13 48 C7.89049259 49.85451458 4.3974863 50.68539509 -1 50 C-6.3977315 45.56186521 -8.00548248 39.7703693 -9 33 C-9.86257485 22.80199209 -10.26081707 12.14924708 -5 3 C-2.45394737 0 -2.45394737 0 0 0 Z " fill="#1D1D1D" transform="translate(180,268)"/>
<path d="M0 0 C3 1 3 1 4.203125 2.70703125 C4.54859375 3.40183594 4.8940625 4.09664062 5.25 4.8125 C5.78367187 5.84310547 5.78367187 5.84310547 6.328125 6.89453125 C7.16125261 9.50532069 7.1937892 10.52362737 6 13 C3.7265625 14.75390625 3.7265625 14.75390625 0.625 16.5625 C0.0678833 16.89185547 -0.4892334 17.22121094 -1.06323242 17.56054688 C-3.03457624 18.72050392 -5.01709226 19.85992892 -7 21 C-8.69703176 21.98756472 -10.39362445 22.97588421 -12.08984375 23.96484375 C-16.71812079 26.65798127 -21.35600478 29.33407101 -26 32 C-29.53691551 29.26903737 -32.10062357 27.11531561 -34 23 C-32.76644545 19.29933634 -31.79034708 19.00566977 -28.4765625 17.109375 C-27.54239502 16.56748535 -26.60822754 16.0255957 -25.64575195 15.46728516 C-24.64890381 14.90058105 -23.65205566 14.33387695 -22.625 13.75 C-20.60970444 12.58762221 -18.59537014 11.42357612 -16.58203125 10.2578125 C-15.61475098 9.69868164 -14.6474707 9.13955078 -13.65087891 8.56347656 C-9.63172391 6.19299686 -5.76517281 3.62831902 -1.92578125 0.9765625 C-1.29027344 0.65429688 -0.65476562 0.33203125 0 0 Z " fill="#463039" transform="translate(403,151)"/>
<path d="M0 0 C2.58941855 0.38112654 3.77857706 0.77327986 5.6328125 2.671875 C6.12523437 3.35765625 6.61765625 4.0434375 7.125 4.75 C7.62257813 5.42546875 8.12015625 6.1009375 8.6328125 6.796875 C11.74193461 11.8070032 12.34520277 16.30567422 12.5625 22.125 C12.75677121 27.64062517 12.75677121 27.64062517 14 33 C18.9974487 32.1131876 23.79790819 31.15119942 28.5625 29.375 C35.97477562 26.8392215 42.40413088 27.39130048 49.5703125 30.5390625 C56.11652388 34.4752089 60.75381119 40.73046889 63 48 C63.8186701 52.36047213 64.25956049 56.76439089 64.72851562 61.17382812 C65.37814478 66.48233618 66.4444982 70.65367937 69.08227539 75.32836914 C70 77 70 77 71 80 C72.32467746 80.6837045 73.65863633 81.34964186 75 82 C77.84369914 86.26554871 77.62978945 89.99203572 77 95 C75.50648922 99.03174339 73.62492958 101.58338028 70 104 C70 101 70 101 70.9375 98.875 C72.4361838 94.81973796 73.64761962 91.35420852 73 87 C71.25538867 84.20187942 69.31165807 81.87937017 67.078125 79.45703125 C62.15189641 73.63259933 61.41972983 68.07148094 60.625 60.75 C59.26824862 50.10718139 57.34129469 42.00107924 48.6484375 35.05859375 C43.51387453 31.76127961 36.84208755 32.57357025 31 33 C28.65429915 33.97063483 26.31979381 34.96898053 24 36 C14.40153519 37.06045362 14.40153519 37.06045362 11.234375 34.6640625 C8.6296432 31.15262026 8.87935366 27.64611359 8.75 23.4375 C8.29142858 16.29266148 6.70061323 9.51818864 1.3359375 4.41796875 C0 3 0 3 0 0 Z " fill="#13120F" transform="translate(289,195)"/>
<path d="M0 0 C3.9921875 4.39140625 3.9921875 4.39140625 3.9921875 8.34765625 C-5.68866755 13.18808377 -24.13793605 9.2278766 -34.0078125 6.34765625 C-37.14654789 5.17535749 -40.0159252 3.86984453 -43.0078125 2.34765625 C-41.2734375 -1.50390625 -41.2734375 -1.50390625 -38.8828125 -2.83984375 C-27.74104893 -5.98860302 -9.4993793 -7.81758257 0 0 Z " fill="#FDCA37" transform="translate(359.0078125,276.65234375)"/>
<path d="M0 0 C5.79126953 5.19217269 7.71511103 10.87144504 8.23828125 18.453125 C8.39044921 26.23771755 8.09380156 32.25619297 4 39 C2.68 39 1.36 39 0 39 C-5.89123398 31.79960291 -4.69279155 18.90731999 -4 10 C-2.43017657 2.43017657 -2.43017657 2.43017657 0 0 Z " fill="#F6C32D" transform="translate(257,198)"/>
<path d="M0 0 C1.97909398 -0.02686553 3.95828971 -0.04633375 5.9375 -0.0625 C7.03964844 -0.07410156 8.14179688 -0.08570312 9.27734375 -0.09765625 C12 0 12 0 13 1 C12.49826994 8.52595086 10.79671367 15.68884438 9 23 C5.04 22.67 1.08 22.34 -3 22 C-4.125 16.375 -4.125 16.375 -3.22265625 12.79296875 C-3.03896484 12.04208984 -2.85527344 11.29121094 -2.66601562 10.51757812 C-2.46685547 9.74865234 -2.26769531 8.97972656 -2.0625 8.1875 C-1.86720703 7.39923828 -1.67191406 6.61097656 -1.47070312 5.79882812 C-0.98981322 3.86353948 -0.49616632 1.93142855 0 0 Z " fill="#F5F4F5" transform="translate(290,80)"/>
<path d="M0 0 C4.3149954 0.56415134 8.02408182 1.19276446 12 3 C11.40440894 7.86872054 9.27522585 11.59328841 6.9375 15.8125 C6.37192383 16.85180664 6.37192383 16.85180664 5.79492188 17.91210938 C4.86916148 19.61128985 3.93537688 21.30609425 3 23 C-1.55833544 22.342425 -4.94519187 21.22049017 -9 19 C-8.42334609 14.2128572 -6.35917004 10.74871176 -3.9375 6.6875 C-3.56044922 6.04232422 -3.18339844 5.39714844 -2.79492188 4.73242188 C-1.86962507 3.15121848 -0.93567319 1.5750854 0 0 Z " fill="#F8F8F8" transform="translate(334,98)"/>
<path d="M0 0 C2.97717008 1.98478006 4.62826444 3.36831119 5.44140625 6.9375 C5.66684799 10.77728188 5.23190202 12.63668683 3.125 15.9375 C0.62131796 18.36754434 -0.36185869 18.91491449 -3.8125 19.375 C-7 19 -7 19 -9.875 17.125 C-12.84331976 12.75982388 -12.90894571 9.13337913 -12 4 C-9.31210009 -0.70382484 -5.03302036 -1.1262006 0 0 Z " fill="#16151B" transform="translate(230,348)"/>
<path d="M0 0 C8.3984375 -0.1953125 8.3984375 -0.1953125 11 0 C13 2 13 2 13.125 4.625 C13.08375 5.40875 13.0425 6.1925 13 7 C12.34 7 11.68 7 11 7 C11 7.66 11 8.32 11 9 C11.99 9.33 12.98 9.66 14 10 C14.125 12.875 14.125 12.875 14 16 C12 18 12 18 9.1796875 18.1953125 C6.11979167 18.13020833 3.05989583 18.06510417 0 18 C0 12.06 0 6.12 0 0 Z " fill="#06060C" transform="translate(151,348)"/>
<path d="M0 0 C3 1 3 1 4.60546875 3.7734375 C7.84196505 11.14146117 10.44361474 17.81026254 9 26 C7.96875 28.3046875 7.96875 28.3046875 7 30 C5.1875 29.8125 5.1875 29.8125 3 29 C-3.11665542 20.39137385 -1.20852151 9.94872173 0 0 Z " fill="#EFBF2C" transform="translate(187,212)"/>
<path d="M0 0 C9.625 -0.25 9.625 -0.25 13 2 C13.3125 5 13.3125 5 13 8 C12.34 8.66 11.68 9.32 11 10 C11.495 10.928125 11.99 11.85625 12.5 12.8125 C14 16 14 16 14 19 C12.68 19 11.36 19 10 19 C9.34 16.69 8.68 14.38 8 12 C6.68 11.67 5.36 11.34 4 11 C4 13.64 4 16.28 4 19 C2.68 19 1.36 19 0 19 C0 12.73 0 6.46 0 0 Z " fill="#1B1A20" transform="translate(386,348)"/>
<path d="M0 0 C1.98 0 3.96 0 6 0 C6.84124316 2.24732102 7.67314832 4.49738785 8.5 6.75 C8.73847656 7.38421875 8.97695313 8.0184375 9.22265625 8.671875 C10.44801758 12.03286607 11 14.36871587 11 18 C9.68 17.67 8.36 17.34 7 17 C7 16.01 7 15.02 7 14 C4.36 14 1.72 14 -1 14 C-1.33 15.65 -1.66 17.3 -2 19 C-3.32 19 -4.64 19 -6 19 C-4.12275039 12.62267685 -2.14328358 6.29304541 0 0 Z " fill="#222127" transform="translate(320,348)"/>
<path d="M0 0 C1.12588014 0.95729916 2.2506715 1.91587895 3.375 2.875 C4.00148438 3.40867188 4.62796875 3.94234375 5.2734375 4.4921875 C6.55836651 5.61432007 7.79371975 6.79371975 9 8 C9 9.8125 9 9.8125 8 12 C6.10171925 13.8456968 4.10975408 15.38401815 2 17 C-1.21524305 15.59155282 -3.32183868 13.89655214 -5.75 11.375 C-6.36359375 10.74335938 -6.9771875 10.11171875 -7.609375 9.4609375 C-8.06828125 8.97882813 -8.5271875 8.49671875 -9 8 C-6.14723863 5.06799526 -3.34920216 2.35684596 0 0 Z " fill="#48323B" transform="translate(417,142)"/>
<path d="M0 0 C3.96 0 7.92 0 12 0 C12 0.99 12 1.98 12 3 C9.36 3 6.72 3 4 3 C4 4.32 4 5.64 4 7 C6.64 7 9.28 7 12 7 C12 7.99 12 8.98 12 10 C9.36 10 6.72 10 4 10 C4 11.65 4 13.3 4 15 C6.97 15 9.94 15 13 15 C13 16.32 13 17.64 13 19 C8.71 19 4.42 19 0 19 C0 12.73 0 6.46 0 0 Z " fill="#2D2C32" transform="translate(175,348)"/>
<path d="M0 0 C0.99 0.66 1.98 1.32 3 2 C2.67 2.99 2.34 3.98 2 5 C-0.97 4.67 -3.94 4.34 -7 4 C-8.49106457 6.98212913 -8.11941467 9.71609658 -8 13 C-6.87465895 14.35618499 -6.87465895 14.35618499 -3.9375 14.0625 C-2.968125 14.041875 -1.99875 14.02125 -1 14 C-0.67 13.01 -0.34 12.02 0 11 C-1.32 11 -2.64 11 -4 11 C-4 10.34 -4 9.68 -4 9 C-1.69 9 0.62 9 3 9 C3 11.97 3 14.94 3 18 C1.68 17.67 0.36 17.34 -1 17 C-1.66 17.66 -2.32 18.32 -3 19 C-5.3125 19.5 -5.3125 19.5 -8 19 C-11.57555094 15.74227581 -12.82512342 14.24599563 -13.5 9.4375 C-12.97728874 5.84386009 -12.19241377 3.86700262 -10 1 C-6.87293041 -0.5635348 -3.42017557 -0.39958487 0 0 Z " fill="#201F26" transform="translate(98,348)"/>
<path d="M0 0 C8.3984375 -0.1953125 8.3984375 -0.1953125 11 0 C13 2 13 2 13.125 4.625 C13.08375 5.40875 13.0425 6.1925 13 7 C12.01 7 11.02 7 10 7 C9.67 6.01 9.34 5.02 9 4 C6.03 3.505 6.03 3.505 3 3 C1.99782936 6.58327753 1.99782936 6.58327753 3 10 C3.039992 11.99960012 3.04346799 14.00047242 3 16 C6.465 15.505 6.465 15.505 10 15 C10 13.68 10 12.36 10 11 C7.03 10.505 7.03 10.505 4 10 C4 9.34 4 8.68 4 8 C5.47968324 8.14049518 6.95874516 8.28754826 8.4375 8.4375 C9.67306641 8.55931641 9.67306641 8.55931641 10.93359375 8.68359375 C13 9 13 9 14 10 C14.4632783 15.32770051 14.4632783 15.32770051 12.83984375 17.68359375 C9.18342348 20.29975857 4.29722191 19.15166666 0 19 C0 12.73 0 6.46 0 0 Z " fill="#2C2B31" transform="translate(292,348)"/>
<path d="M0 0 C0.70125 0.01417969 1.4025 0.02835937 2.125 0.04296875 C3.176875 0.05263672 3.176875 0.05263672 4.25 0.0625 C6.125 0.23046875 6.125 0.23046875 8.125 1.23046875 C7.795 2.22046875 7.465 3.21046875 7.125 4.23046875 C4.815 4.23046875 2.505 4.23046875 0.125 4.23046875 C0.125 4.89046875 0.125 5.55046875 0.125 6.23046875 C0.97384766 6.53791016 0.97384766 6.53791016 1.83984375 6.8515625 C2.57332031 7.12097656 3.30679687 7.39039063 4.0625 7.66796875 C4.79339844 7.93480469 5.52429688 8.20164062 6.27734375 8.4765625 C8.125 9.23046875 8.125 9.23046875 9.125 10.23046875 C9.4375 13.10546875 9.4375 13.10546875 9.125 16.23046875 C6.906313 18.79049221 5.47312407 19.17970066 2.125 19.66796875 C-1.50012706 19.13930439 -2.60525981 18.02399513 -4.875 15.23046875 C-4.545 14.57046875 -4.215 13.91046875 -3.875 13.23046875 C0.58 14.22046875 0.58 14.22046875 5.125 15.23046875 C4.795 14.24046875 4.465 13.25046875 4.125 12.23046875 C1.82247517 11.16143936 -0.5122026 10.15871058 -2.875 9.23046875 C-3.875 8.23046875 -3.875 8.23046875 -4.0625 5.29296875 C-3.85921154 1.97259059 -3.53001789 0.43389803 0 0 Z " fill="#28272D" transform="translate(260.875,347.76953125)"/>
<path d="M0 0 C3.96 0 7.92 0 12 0 C12 0.99 12 1.98 12 3 C9.36 3 6.72 3 4 3 C4 4.32 4 5.64 4 7 C6.31 7 8.62 7 11 7 C11 8.32 11 9.64 11 11 C8.69 11 6.38 11 4 11 C4 12.65 4 14.3 4 16 C6.64 16 9.28 16 12 16 C12 16.66 12 17.32 12 18 C8.04 18 4.08 18 0 18 C0 12.06 0 6.12 0 0 Z " fill="#0E0D13" transform="translate(364,348)"/>
<path d="M0 0 C0.99 0.66 1.98 1.32 3 2 C3 2.99 3 3.98 3 5 C2.36191406 4.91621094 1.72382812 4.83242188 1.06640625 4.74609375 C0.24011719 4.64425781 -0.58617188 4.54242188 -1.4375 4.4375 C-2.26121094 4.33308594 -3.08492187 4.22867187 -3.93359375 4.12109375 C-4.95646484 4.06115234 -4.95646484 4.06115234 -6 4 C-7.25949049 5.03406673 -7.25949049 5.03406673 -7.09765625 7.28515625 C-7.08605469 8.20167969 -7.07445313 9.11820312 -7.0625 10.0625 C-7.04896484 11.44115234 -7.04896484 11.44115234 -7.03515625 12.84765625 C-7.02355469 13.55792969 -7.01195313 14.26820313 -7 15 C-4.69 15 -2.38 15 0 15 C0.33 14.01 0.66 13.02 1 12 C1.99 12.33 2.98 12.66 4 13 C2.63016497 16.16115776 2.0109362 16.9927092 -1 19 C-3.9375 19.375 -3.9375 19.375 -7 19 C-9.30275556 17.1329009 -10.67823871 15.64352259 -12 13 C-12.36744365 8.5171875 -12.51708331 6.03416662 -10.5 2 C-6.81176326 -0.95058939 -4.65492863 -0.51721429 0 0 Z " fill="#201F25" transform="translate(123,348)"/>
<path d="M0 0 C0.99 0 1.98 0 3 0 C3 2.31 3 4.62 3 7 C3.66 7 4.32 7 5 7 C5.28875 6.401875 5.5775 5.80375 5.875 5.1875 C7 3 7 3 9 0 C10.32 0 11.64 0 13 0 C11.62845496 2.95409701 10.01136276 5.44008376 8 8 C9.65167557 11.5786304 11.78286492 14.74820188 14 18 C11.75 18.3125 11.75 18.3125 9 18 C5 13.89189189 5 13.89189189 5 11 C4.34 11 3.68 11 3 11 C3 13.31 3 15.62 3 18 C2.01 18 1.02 18 0 18 C0 12.06 0 6.12 0 0 Z " fill="#19191F" transform="translate(341,348)"/>
<path d="M0 0 C1.32 0 2.64 0 4 0 C4 4.95 4 9.9 4 15 C6.64 15 9.28 15 12 15 C12 16.32 12 17.64 12 19 C8.04 19 4.08 19 0 19 C0 12.73 0 6.46 0 0 Z " fill="#302F35" transform="translate(197,348)"/>
<path d="M0 0 C2 2 2 2 2.265625 3.875 C2.26046875 4.57625 2.2553125 5.2775 2.25 6 C2.25515625 6.70125 2.2603125 7.4025 2.265625 8.125 C2 10 2 10 0 12 C-3 12.3125 -3 12.3125 -6 12 C-8.31282587 8.53076119 -8.42478586 7.07794425 -8 3 C-5.8975876 -0.31959853 -3.76753493 -0.4830173 0 0 Z " fill="#EFEFF0" transform="translate(229,351)"/>
<path d="M0 0 C3.25543229 0.34879632 4.01873107 1.02133261 6.25 3.5625 C6.8275 4.366875 7.405 5.17125 8 6 C8.598125 5.01 9.19625 4.02 9.8125 3 C10.8953125 1.515 10.8953125 1.515 12 0 C12.99 0 13.98 0 15 0 C13.35211268 5.57746479 13.35211268 5.57746479 11.4375 7.875 C9.25744351 11.09769221 9.32084221 14.14989343 9 18 C8.01 18 7.02 18 6 18 C5.90203125 17.43152344 5.8040625 16.86304688 5.703125 16.27734375 C4.63191682 10.74584634 2.93353461 6.79143986 0 2 C0 1.34 0 0.68 0 0 Z " fill="#1C1B22" transform="translate(408,348)"/>
<path d="M0 0 C2.64 0 5.28 0 8 0 C8.33 1.32 8.66 2.64 9 4 C9.66 4 10.32 4 11 4 C11 4.66 11 5.32 11 6 C8.36 5.67 5.72 5.34 3 5 C3 5.66 3 6.32 3 7 C4.98 7 6.96 7 9 7 C9.38218767 8.65614657 9.71395102 10.32457024 10 12 C9 13 9 13 5.4375 13.0625 C4.303125 13.041875 3.16875 13.02125 2 13 C-0.28571429 4.57142857 -0.28571429 4.57142857 0 0 Z " fill="#49484D" transform="translate(293,351)"/>
<path d="M0 0 C6.31454394 0.29234 11.72670749 1.33272223 17 5 C17.99 6.485 17.99 6.485 19 8 C18 9 18 9 14.875 9.25 C9.49969452 8.9032061 5.68082655 7.42223785 1.5625 3.9375 C0 2 0 2 0 0 Z " fill="#EEBF2C" transform="translate(151,236)"/>
<path d="M0 0 C1.98 0 3.96 0 6 0 C6 1.32 6 2.64 6 4 C4.35 4.66 2.7 5.32 1 6 C3.31 6.66 5.62 7.32 8 8 C8 9.32 8 10.64 8 12 C5.29120665 13.35439668 2.99066732 13.06501451 0 13 C0 11.02 0 9.04 0 7 C-0.66 7 -1.32 7 -2 7 C-2 6.01 -2 5.02 -2 4 C-1.34 4 -0.68 4 0 4 C0 2.68 0 1.36 0 0 Z " fill="#5E5D62" transform="translate(154,351)"/>
<path d="M0 0 C3.3 0 6.6 0 10 0 C10 0.33 10 0.66 10 1 C7.03 1 4.06 1 1 1 C1 6.61 1 12.22 1 18 C1.66 18 2.32 18 3 18 C2.91621094 17.33613281 2.83242188 16.67226563 2.74609375 15.98828125 C1.73462214 7.21792619 1.73462214 7.21792619 3 3 C4.98 3 6.96 3 9 3 C9.6875 4.8125 9.6875 4.8125 10 7 C8.75 8.75 8.75 8.75 7 10 C6.01 10 5.02 10 4 10 C4 12.97 4 15.94 4 19 C2.68 19 1.36 19 0 19 C0 12.73 0 6.46 0 0 Z " fill="#222128" transform="translate(386,348)"/>
<path d="M0 0 C1.32 0 2.64 0 4 0 C6.01034255 2.2113768 7.75045909 4.34736071 9.5 6.75 C10.4454495 8.01746909 11.39331566 9.28313958 12.34375 10.546875 C12.79234375 11.14435547 13.2409375 11.74183594 13.703125 12.35742188 C15.31868983 14.40364178 17.09599495 16.22173113 19 18 C18.01 18.66 17.02 19.32 16 20 C10.16210302 14.44157681 4.62887865 8.62323594 0 2 C0 1.34 0 0.68 0 0 Z " fill="#111111" transform="translate(308,282)"/>
<path d="M0 0 C2.5 0.25 2.5 0.25 4.5 2.25 C4.75 5.25 4.75 5.25 4.5 8.25 C2.5 10.25 2.5 10.25 0 10.5625 C-1.2375 10.4078125 -1.2375 10.4078125 -2.5 10.25 C-4.64915785 7.02626323 -4.88286803 5.98296326 -4.5 2.25 C-2.5 0.25 -2.5 0.25 0 0 Z " fill="#77626A" transform="translate(413.5,304.75)"/>
<path d="M0 0 C1.32 0 2.64 0 4 0 C4 6.27 4 12.54 4 19 C2.68 19 1.36 19 0 19 C0 12.73 0 6.46 0 0 Z " fill="#2A292F" transform="translate(136,348)"/>
<path d="M0 0 C2 2 2 2 2.125 5.125 C2.08375 6.07375 2.0425 7.0225 2 8 C5.465 7.505 5.465 7.505 9 7 C9 5.68 9 4.36 9 3 C6.03 2.505 6.03 2.505 3 2 C3 1.34 3 0.68 3 0 C4.47968324 0.14049518 5.95874516 0.28754826 7.4375 0.4375 C8.67306641 0.55931641 8.67306641 0.55931641 9.93359375 0.68359375 C12 1 12 1 13 2 C13.1875 4.9375 13.1875 4.9375 13 8 C11 10 11 10 8.3984375 10.1953125 C7.40070313 10.17210937 6.40296875 10.14890625 5.375 10.125 C3.87066406 10.09792969 3.87066406 10.09792969 2.3359375 10.0703125 C1.56507813 10.04710937 0.79421875 10.02390625 0 10 C0 6.7 0 3.4 0 0 Z " fill="#0E0D14" transform="translate(293,356)"/>
<path d="M0 0 C1.22589844 0.01353516 1.22589844 0.01353516 2.4765625 0.02734375 C3.41628906 0.04474609 3.41628906 0.04474609 4.375 0.0625 C4.375 0.3925 4.375 0.7225 4.375 1.0625 C1.735 1.0625 -0.905 1.0625 -3.625 1.0625 C-3.625 2.3825 -3.625 3.7025 -3.625 5.0625 C-1.315 5.0625 0.995 5.0625 3.375 5.0625 C3.375 6.3825 3.375 7.7025 3.375 9.0625 C1.065 9.0625 -1.245 9.0625 -3.625 9.0625 C-3.625 10.3825 -3.625 11.7025 -3.625 13.0625 C-4.615 13.0625 -5.605 13.0625 -6.625 13.0625 C-6.625 9.1025 -6.625 5.1425 -6.625 1.0625 C-4.21954362 -0.14022819 -2.67503047 -0.03821472 0 0 Z " fill="#343339" transform="translate(371.625,349.9375)"/>
<path d="M0 0 C0.70125 0.01417969 1.4025 0.02835937 2.125 0.04296875 C3.176875 0.05263672 3.176875 0.05263672 4.25 0.0625 C6.125 0.23046875 6.125 0.23046875 8.125 1.23046875 C7.795 2.22046875 7.465 3.21046875 7.125 4.23046875 C4.815 4.23046875 2.505 4.23046875 0.125 4.23046875 C0.125 4.89046875 0.125 5.55046875 0.125 6.23046875 C2.6 7.22046875 2.6 7.22046875 5.125 8.23046875 C3.125 10.23046875 3.125 10.23046875 0.625 10.48046875 C-1.875 10.23046875 -1.875 10.23046875 -3.875 8.23046875 C-4.125 5.23046875 -4.125 5.23046875 -3.875 2.23046875 C-1.875 0.23046875 -1.875 0.23046875 0 0 Z " fill="#1B1A20" transform="translate(260.875,347.76953125)"/>
<path d="M0 0 C0.33 0.99 0.66 1.98 1 3 C-0.98 3 -2.96 3 -5 3 C-5 3.66 -5 4.32 -5 5 C-3.35 5.33 -1.7 5.66 0 6 C0.38218767 7.65614657 0.71395102 9.32457024 1 11 C0 12 0 12 -3.5625 12.0625 C-4.696875 12.041875 -5.83125 12.02125 -7 12 C-7.33 11.01 -7.66 10.02 -8 9 C-5.69 9.33 -3.38 9.66 -1 10 C-1 9.34 -1 8.68 -1 8 C-2.175625 7.7834375 -2.175625 7.7834375 -3.375 7.5625 C-6 7 -6 7 -8 6 C-7.625 3.5625 -7.625 3.5625 -7 1 C-4.53721199 -0.231394 -2.7204945 -0.07159196 0 0 Z " fill="#6A535C" transform="translate(89,302)"/>
<path d="M0 0 C0.66 0 1.32 0 2 0 C2.49029622 7.23186925 2.49029622 7.23186925 0.125 10.9375 C-2.58284512 13.56570262 -3.32057956 13.98641159 -7.125 14.0625 C-8.548125 14.0315625 -8.548125 14.0315625 -10 14 C-9.875 12.125 -9.875 12.125 -9 10 C-8.05125 9.7525 -7.1025 9.505 -6.125 9.25 C-2.9373054 8.35484251 -2.9373054 8.35484251 -1.9375 6.1015625 C-1.20065883 4.08233429 -0.55071479 2.07725754 0 0 Z " fill="#232228" transform="translate(233,353)"/>
<path d="M0 0 C3.3 0 6.6 0 10 0 C10.33 0.99 10.66 1.98 11 3 C9.68 3 8.36 3 7 3 C7 5.97 7 8.94 7 12 C6.01 12 5.02 12 4 12 C4 9.03 4 6.06 4 3 C2.68 3 1.36 3 0 3 C0 2.01 0 1.02 0 0 Z " fill="#7C6870" transform="translate(98,302)"/>
<path d="M0 0 C3.375 -0.125 3.375 -0.125 7 0 C9 2 9 2 9.125 4.625 C9.08375 5.40875 9.0425 6.1925 9 7 C8.34 7 7.68 7 7 7 C7 7.66 7 8.32 7 9 C7.99 9.33 8.98 9.66 10 10 C5.99799622 11.60080151 2.95443764 10.29279692 -1 9 C-1 8.67 -1 8.34 -1 8 C0.98 7.34 2.96 6.68 5 6 C5 5.34 5 4.68 5 4 C3.35 3.67 1.7 3.34 0 3 C0 2.01 0 1.02 0 0 Z " fill="#17161C" transform="translate(155,348)"/>
<path d="M0 0 C0.99 0 1.98 0 3 0 C3.83288874 6.25307239 4.03863773 11.76817361 3 18 C2.01 18 1.02 18 0 18 C0 12.06 0 6.12 0 0 Z " fill="#0B0A11" transform="translate(341,348)"/>
<path d="M0 0 C2.64 0 5.28 0 8 0 C8 0.66 8 1.32 8 2 C6.02 2 4.04 2 2 2 C2 2.66 2 3.32 2 4 C3.65 4 5.3 4 7 4 C7 4.66 7 5.32 7 6 C5.35 6 3.7 6 2 6 C2 6.99 2 7.98 2 9 C3.98 9 5.96 9 8 9 C8 9.66 8 10.32 8 11 C5.36 11 2.72 11 0 11 C0 7.37 0 3.74 0 0 Z " fill="#5F4751" transform="translate(64,303)"/>
<path d="M0 0 C1.9451 2.91765 2.45276317 4.62537285 3 8 C0 10 0 10 -3.1875 9.625 C-4.5796875 9.315625 -4.5796875 9.315625 -6 9 C-5.34 6.36 -4.68 3.72 -4 1 C-3.01 1.33 -2.02 1.66 -1 2 C-0.67 1.34 -0.34 0.68 0 0 Z " fill="#2B2A30" transform="translate(326,351)"/>
<path d="M0 0 C0.99 0.33 1.98 0.66 3 1 C1.63016497 4.16115776 1.0109362 4.9927092 -2 7 C-4.9375 7.375 -4.9375 7.375 -8 7 C-10.375 5 -10.375 5 -12 3 C-10.68 2.34 -9.36 1.68 -8 1 C-8 1.66 -8 2.32 -8 3 C-5.69 3 -3.38 3 -1 3 C-0.67 2.01 -0.34 1.02 0 0 Z " fill="#242329" transform="translate(124,360)"/>
<path d="M0 0 C7.38461538 -0.36923077 7.38461538 -0.36923077 10.5 1.5 C10.995 1.995 11.49 2.49 12 3 C11.34 5.64 10.68 8.28 10 11 C9.67 11 9.34 11 9 11 C8.34 8.69 7.68 6.38 7 4 C6.236875 4 5.47375 4 4.6875 4 C2.79166667 4 0.89583333 4 -1 4 C-0.67 2.68 -0.34 1.36 0 0 Z " fill="#1A1920" transform="translate(222,348)"/>
<path d="M0 0 C2.31 0 4.62 0 7 0 C7.9765625 6.0546875 7.9765625 6.0546875 8 8 C6 10 6 10 2.875 10.125 C1.451875 10.063125 1.451875 10.063125 0 10 C0 9.34 0 8.68 0 8 C1.65 8 3.3 8 5 8 C5 7.34 5 6.68 5 6 C4.01 6 3.02 6 2 6 C2.33 5.01 2.66 4.02 3 3 C2.01 2.67 1.02 2.34 0 2 C0 1.34 0 0.68 0 0 Z " fill="#78636B" transform="translate(440,305)"/>
<path d="M0 0 C2.31 0 4.62 0 7 0 C7 2.97 7 5.94 7 9 C5.68 8.67 4.36 8.34 3 8 C0.31850007 8.38567131 0.31850007 8.38567131 -2 9 C-2 8.34 -2 7.68 -2 7 C-1.195625 6.731875 -0.39125 6.46375 0.4375 6.1875 C1.283125 5.795625 2.12875 5.40375 3 5 C3.33 4.01 3.66 3.02 4 2 C2.68 2 1.36 2 0 2 C0 1.34 0 0.68 0 0 Z " fill="#0A090F" transform="translate(94,357)"/>
<path d="M0 0 C1.65 0 3.3 0 5 0 C5.625 2.375 5.625 2.375 6 5 C5.34 5.66 4.68 6.32 4 7 C4.99 7.33 5.98 7.66 7 8 C7 8.66 7 9.32 7 10 C4.36 10 1.72 10 -1 10 C0 7 0 7 3 5 C3.33 4.01 3.66 3.02 4 2 C2.35 2 0.7 2 -1 2 C-0.67 1.34 -0.34 0.68 0 0 Z " fill="#6B555E" transform="translate(426,305)"/>
<path d="M0 0 C1.65 0 3.3 0 5 0 C5.625 2.375 5.625 2.375 6 5 C5.34 5.66 4.68 6.32 4 7 C4.99 7.33 5.98 7.66 7 8 C7 8.66 7 9.32 7 10 C4.36 10 1.72 10 -1 10 C0 7 0 7 3 5 C3.33 4.01 3.66 3.02 4 2 C2.35 2 0.7 2 -1 2 C-0.67 1.34 -0.34 0.68 0 0 Z " fill="#6B555E" transform="translate(395,305)"/>
<path d="M0 0 C2.64 0.33 5.28 0.66 8 1 C7.360625 1.2475 6.72125 1.495 6.0625 1.75 C3.81258459 2.81562433 3.81258459 2.81562433 3.25 5.125 C3.1675 5.74375 3.085 6.3625 3 7 C2.34 7 1.68 7 1 7 C1 10.3 1 13.6 1 17 C0.67 17 0.34 17 0 17 C0 11.39 0 5.78 0 0 Z " fill="#17161D" transform="translate(151,348)"/>
<path d="M0 0 C2.31 0 4.62 0 7 0 C6.360625 0.165 5.72125 0.33 5.0625 0.5 C2.57750346 1.9523634 2.57750346 1.9523634 2.25 5.6875 C1.9532667 9.46222367 1.9211651 13.21592468 2 17 C1.34 17 0.68 17 0 17 C0 11.39 0 5.78 0 0 Z " fill="#09080E" transform="translate(387,349)"/>
<path d="M0 0 C1.98 0 3.96 0 6 0 C6.33 1.65 6.66 3.3 7 5 C4.69 5 2.38 5 0 5 C0 3.35 0 1.7 0 0 Z " fill="#EBEBEB" transform="translate(296,358)"/>
<path d="M0 0 C1.98 0 3.96 0 6 0 C6.33 1.65 6.66 3.3 7 5 C4.69 5 2.38 5 0 5 C0 3.35 0 1.7 0 0 Z " fill="#E7E7E8" transform="translate(155,358)"/>
<path d="M0 0 C1.65 0 3.3 0 5 0 C4.67 3.3 4.34 6.6 4 10 C3.01 10 2.02 10 1 10 C0.67 6.7 0.34 3.4 0 0 Z " fill="#0C0B11" transform="translate(413,356)"/>
<path d="M0 0 C2 2 2 2 2.125 5.125 C2.08375 6.07375 2.0425 7.0225 2 8 C4.31 8 6.62 8 9 8 C9 8.66 9 9.32 9 10 C6.03 10 3.06 10 0 10 C0 6.7 0 3.4 0 0 Z " fill="#07060C" transform="translate(293,356)"/>
<path d="M0 0 C0.625 1.875 0.625 1.875 1 4 C-1 6 -1 6 -4.125 6.125 C-5.548125 6.063125 -5.548125 6.063125 -7 6 C-6.875 4.125 -6.875 4.125 -6 2 C-2.9375 0.75 -2.9375 0.75 0 0 Z " fill="#333238" transform="translate(230,361)"/>
<path d="M0 0 C1.98 0 3.96 0 6 0 C6 1.65 6 3.3 6 5 C5.01 5.495 5.01 5.495 4 6 C4 5.34 4 4.68 4 4 C3.34 4 2.68 4 2 4 C1.67 4.66 1.34 5.32 1 6 C0 5 0 5 -0.0625 2.4375 C-0.041875 1.633125 -0.02125 0.82875 0 0 Z " fill="#17161D" transform="translate(320,348)"/>
<path d="M0 0 C0.66 0 1.32 0 2 0 C3.37482707 1.63260714 4.70647667 3.30225062 6 5 C6.66 5.66 7.32 6.32 8 7 C7.01 7.66 6.02 8.32 5 9 C3.02 7.02 1.04 5.04 -1 3 C-0.67 2.01 -0.34 1.02 0 0 Z " fill="#070707" transform="translate(319,293)"/>
<path d="M0 0 C0.33 0.99 0.66 1.98 1 3 C-0.98 3 -2.96 3 -5 3 C-5 3.66 -5 4.32 -5 5 C-5.99 5.33 -6.98 5.66 -8 6 C-7.625 3.5625 -7.625 3.5625 -7 1 C-4.53721199 -0.231394 -2.7204945 -0.07159196 0 0 Z " fill="#7E6A72" transform="translate(89,302)"/>
<path d="M0 0 C1.65 0 3.3 0 5 0 C5.5625 1.9375 5.5625 1.9375 6 4 C5 5 5 5 2.4375 5.0625 C1.2309375 5.0315625 1.2309375 5.0315625 0 5 C0 3.35 0 1.7 0 0 Z " fill="#E7E7E7" transform="translate(390,351)"/>
<path d="M0 0 C2.5654594 2.5654594 2.54046087 4.47686668 3 8 C1.68 8 0.36 8 -1 8 C-1.625 5.6875 -1.625 5.6875 -2 3 C-1.34 2.01 -0.68 1.02 0 0 Z " fill="#3B3A3F" transform="translate(397,359)"/>
<path d="M0 0 C0.99 0.33 1.98 0.66 3 1 C3 2.65 3 4.3 3 6 C1.35 6.33 -0.3 6.66 -2 7 C-1.34 4.69 -0.68 2.38 0 0 Z " fill="#3E3D42" transform="translate(316,360)"/>
<path d="M0 0 C0.33 0 0.66 0 1 0 C1 1.98 1 3.96 1 6 C1.99 6.33 2.98 6.66 4 7 C3.01 7 2.02 7 1 7 C1 9.97 1 12.94 1 16 C-0.32 15.67 -1.64 15.34 -3 15 C-2.01 15 -1.02 15 0 15 C-0.08378906 14.33613281 -0.16757812 13.67226563 -0.25390625 12.98828125 C-1.26537786 4.21792619 -1.26537786 4.21792619 0 0 Z " fill="#48474D" transform="translate(389,351)"/>
<path d="M0 0 C0.33 0.66 0.66 1.32 1 2 C1.66 2 2.32 2 3 2 C3.33 4.64 3.66 7.28 4 10 C2.68 9.34 1.36 8.68 0 8 C0 5.36 0 2.72 0 0 Z " fill="#14131A" transform="translate(111,353)"/>
<path d="M0 0 C1.32 0 2.64 0 4 0 C2.70700306 2.88437779 1.34058637 4.87219421 -1 7 C-1.99 6.34 -2.98 5.68 -4 5 C-2.25 2.5 -2.25 2.5 0 0 Z " fill="#222127" transform="translate(350,348)"/>
<path d="M0 0 C2.88437779 1.29299694 4.87219421 2.65941363 7 5 C6.34 5 5.68 5 5 5 C4.67 5.66 4.34 6.32 4 7 C2.35 5.68 0.7 4.36 -1 3 C-0.67 2.01 -0.34 1.02 0 0 Z " fill="#121212" transform="translate(296,269)"/>
<path d="M0 0 C0.66 0 1.32 0 2 0 C2.33 2.31 2.66 4.62 3 7 C1.68 6.67 0.36 6.34 -1 6 C-1.042721 4.33388095 -1.04063832 2.66617115 -1 1 C-0.67 0.67 -0.34 0.34 0 0 Z " fill="#232228" transform="translate(328,359)"/>
<path d="M0 0 C2.33944736 0.28730055 4.6739143 0.61936779 7 1 C5.68 1.33 4.36 1.66 3 2 C3 2.66 3 3.32 3 4 C3.99 4.33 4.98 4.66 6 5 C4.35 5 2.7 5 1 5 C0.34 3.68 -0.32 2.36 -1 1 C-0.67 0.67 -0.34 0.34 0 0 Z " fill="#3E3D43" transform="translate(89,362)"/>
<path d="M0 0 C0.99 0 1.98 0 3 0 C3 1.65 3 3.3 3 5 C1.02 5.99 1.02 5.99 -1 7 C-1.33 6.01 -1.66 5.02 -2 4 C-1.34 4 -0.68 4 0 4 C0 2.68 0 1.36 0 0 Z " fill="#111017" transform="translate(162,359)"/>
<path d="M0 0 C1.65 0 3.3 0 5 0 C5 1.32 5 2.64 5 4 C3.35 4 1.7 4 0 4 C0 2.68 0 1.36 0 0 Z " fill="#F5F5F5" transform="translate(296,351)"/>
<path d="M0 0 C1.65 0 3.3 0 5 0 C5 1.32 5 2.64 5 4 C3.35 4 1.7 4 0 4 C0 2.68 0 1.36 0 0 Z " fill="#F1F1F2" transform="translate(155,351)"/>
<path d="M0 0 C0.66 0.33 1.32 0.66 2 1 C0.88121617 2.17262904 -0.24523051 3.33795138 -1.375 4.5 C-2.00148438 5.1496875 -2.62796875 5.799375 -3.2734375 6.46875 C-5 8 -5 8 -7 8 C-5.50902342 4.2047869 -3.24299151 2.38957269 0 0 Z " fill="#FFCD43" transform="translate(300,237)"/>
<path d="M0 0 C2.64 0.66 5.28 1.32 8 2 C4.91190305 3.76462683 3.76687864 4 0 4 C-0.33 3.34 -0.66 2.68 -1 2 C-0.67 1.34 -0.34 0.68 0 0 Z " fill="#37373C" transform="translate(257,361)"/>
<path d="M0 0 C0.33 0.66 0.66 1.32 1 2 C2.98 2 4.96 2 7 2 C7.33 2.66 7.66 3.32 8 4 C0.25 4.125 0.25 4.125 -2 3 C-1 1 -1 1 0 0 Z " fill="#0A0910" transform="translate(319,358)"/>
<path d="M0 0 C0.66 0 1.32 0 2 0 C2.33 2.31 2.66 4.62 3 7 C1.68 7 0.36 7 -1 7 C-0.67 4.69 -0.34 2.38 0 0 Z " fill="#DCDBDC" transform="translate(322,352)"/>
<path d="M0 0 C1.65 0 3.3 0 5 0 C5.33 1.65 5.66 3.3 6 5 C5.01 5 4.02 5 3 5 C3.33 4.01 3.66 3.02 4 2 C2.35 2 0.7 2 -1 2 C-0.67 1.34 -0.34 0.68 0 0 Z " fill="#634B55" transform="translate(426,305)"/>
<path d="M0 0 C1.65 0 3.3 0 5 0 C5.33 1.65 5.66 3.3 6 5 C5.01 5 4.02 5 3 5 C3.33 4.01 3.66 3.02 4 2 C2.35 2 0.7 2 -1 2 C-0.67 1.34 -0.34 0.68 0 0 Z " fill="#634B55" transform="translate(395,305)"/>
<path d="M0 0 C2.31 0 4.62 0 7 0 C6.34 1.65 5.68 3.3 5 5 C4.34 5 3.68 5 3 5 C3 4.34 3 3.68 3 3 C2.01 2.67 1.02 2.34 0 2 C0 1.34 0 0.68 0 0 Z " fill="#664E58" transform="translate(440,305)"/>
<path d="M0 0 C2.31 0 4.62 0 7 0 C7 0.99 7 1.98 7 3 C4.3333581 4.33332095 2.83319697 3.67102033 0 3 C0 2.01 0 1.02 0 0 Z " fill="#2D2C32" transform="translate(155,348)"/>
<path d="M0 0 C0 3 0 3 -2.5 5.6875 C-3.325 6.450625 -4.15 7.21375 -5 8 C-5.66 7.67 -6.32 7.34 -7 7 C-4.78071806 4.09197539 -3.07030857 2.04687238 0 0 Z " fill="#503A43" transform="translate(247,63)"/>
<path d="M0 0 C0.99 0 1.98 0 3 0 C2.34 1.98 1.68 3.96 1 6 C0.01 5.34 -0.98 4.68 -2 4 C-1.34 2.68 -0.68 1.36 0 0 Z " fill="#222128" transform="translate(420,348)"/>
<path d="M0 0 C0.99 0 1.98 0 3 0 C3 2.31 3 4.62 3 7 C2.34 7 1.68 7 1 7 C0.67 4.69 0.34 2.38 0 0 Z " fill="#15141A" transform="translate(244,348)"/>
<path d="M0 0 C2.31 0 4.62 0 7 0 C6.360625 0.2475 5.72125 0.495 5.0625 0.75 C2.81258459 1.81562433 2.81258459 1.81562433 2.25 4.125 C2.1675 4.74375 2.085 5.3625 2 6 C1.34 6 0.68 6 0 6 C0 4.02 0 2.04 0 0 Z " fill="#09090F" transform="translate(152,349)"/>
<path d="M0 0 C2 0.3125 2 0.3125 4 1 C4.33 1.66 4.66 2.32 5 3 C3.35 3.66 1.7 4.32 0 5 C-0.5625 3.0625 -0.5625 3.0625 -1 1 C-0.67 0.67 -0.34 0.34 0 0 Z " fill="#222128" transform="translate(222,348)"/>
<path d="M0 0 C0.66 0 1.32 0 2 0 C2.1875 2.875 2.1875 2.875 2 6 C1.01 6.66 0.02 7.32 -1 8 C-1.66 7.34 -2.32 6.68 -3 6 C-2.34 5.67 -1.68 5.34 -1 5 C-0.34444881 2.47266765 -0.34444881 2.47266765 0 0 Z " fill="#6F5962" transform="translate(416,307)"/>
<path d="M0 0 C0.99 0 1.98 0 3 0 C3 1.98 3 3.96 3 6 C2.01 6 1.02 6 0 6 C0 4.02 0 2.04 0 0 Z " fill="#F4F3F4" transform="translate(412,307)"/>
<path d="M0 0 C-1.15173355 2.46800047 -2.04783565 4.04783565 -4 6 C-4.99 6 -5.98 6 -7 6 C-5.81636731 2.44910192 -3.99368042 0 0 0 Z " fill="#101010" transform="translate(184,263)"/>
<path d="M0 0 C0.99 0.33 1.98 0.66 3 1 C3 1.66 3 2.32 3 3 C0.1875 4.125 0.1875 4.125 -3 5 C-3.99 4.34 -4.98 3.68 -6 3 C-4.35 3 -2.7 3 -1 3 C-0.67 2.01 -0.34 1.02 0 0 Z " fill="#3B3A3F" transform="translate(124,360)"/>
<path d="M0 0 C2.97 0.495 2.97 0.495 6 1 C5.67 1.99 5.34 2.98 5 4 C3.02 3.34 1.04 2.68 -1 2 C-0.67 1.34 -0.34 0.68 0 0 Z " fill="#15141A" transform="translate(263,348)"/>
</svg>
